<svg xmlns="http://www.w3.org/2000/svg" viewBox="0 0 20 22">
  <path style="fill:#ebebeb" d="M1 3h18v18H1z"/>
  <path d="M17 2h-2V1c0-.55-.45-1-1-1s-1 .45-1 1v1H7V1c0-.55-.45-1-1-1S5 .45 5 1v1H3C1.35 2 0 3.35 0 5v14c0 1.65 1.35 3 3 3h14c1.65 0 3-1.35 3-3V5c0-1.65-1.35-3-3-3Zm1 17c0 .55-.45 1-1 1H3c-.55 0-1-.45-1-1v-9h16v9Zm0-11H2V5c0-.55.45-1 1-1h2v1c0 .55.45 1 1 1s1-.45 1-1V4h6v1c0 .55.45 1 1 1s1-.45 1-1V4h2c.55 0 1 .45 1 1v3Z"/>
  <path d="M18 5v3H2V5c0-.55.45-1 1-1h2v1c0 .55.45 1 1 1s1-.45 1-1V4h6v1c0 .55.45 1 1 1s1-.45 1-1V4h2c.55 0 1 .45 1 1ZM5.82 17.97c.23.23.23.62 0 .85a.631.631 0 0 1-.86 0l-.47-.47-.47.47a.631.631 0 0 1-.86 0 .61.61 0 0 1 0-.85l.47-.47-.47-.47a.61.61 0 0 1 0-.85.61.61 0 0 1 .85 0l.47.47.47-.47a.61.61 0 0 1 .85 0c.23.23.23.62 0 .85l-.47.47.47.47Zm3.67-5c.23.23.23.62 0 .85a.631.631 0 0 1-.86 0l-.47-.47-.47.47a.631.631 0 0 1-.86 0 .61.61 0 0 1 0-.85l.47-.47-.47-.47a.61.61 0 0 1 0-.85.61.61 0 0 1 .85 0l.47.47.47-.47a.61.61 0 0 1 .85 0c.23.23.23.62 0 .85L9 12.5l.47.47Zm0 5c.23.23.23.62 0 .85a.631.631 0 0 1-.86 0l-.47-.47-.47.47a.631.631 0 0 1-.86 0 .61.61 0 0 1 0-.85l.47-.47-.47-.47a.61.61 0 0 1 0-.85.61.61 0 0 1 .85 0l.47.47.47-.47a.61.61 0 0 1 .85 0c.23.23.23.62 0 .85L9 17.5l.47.47Zm3.67-5c.23.23.23.62 0 .85a.631.631 0 0 1-.86 0l-.47-.47-.47.47a.631.631 0 0 1-.86 0 .61.61 0 0 1 0-.85l.47-.47-.47-.47a.61.61 0 0 1 0-.85.61.61 0 0 1 .85 0l.47.47.47-.47a.61.61 0 0 1 .85 0c.23.23.23.62 0 .85l-.47.47.47.47Zm0 5c.23.23.23.62 0 .85a.631.631 0 0 1-.86 0l-.47-.47-.47.47a.631.631 0 0 1-.86 0 .61.61 0 0 1 0-.85l.47-.47-.47-.47a.61.61 0 0 1 0-.85.61.61 0 0 1 .85 0l.47.47.47-.47a.61.61 0 0 1 .85 0c.23.23.23.62 0 .85l-.47.47.47.47Zm3.66-5c.23.23.23.62 0 .85a.631.631 0 0 1-.86 0l-.47-.47-.47.47a.631.631 0 0 1-.86 0 .61.61 0 0 1 0-.85l.47-.47-.47-.47a.61.61 0 0 1 0-.85.61.61 0 0 1 .85 0l.47.47.47-.47a.61.61 0 0 1 .85 0c.23.23.23.62 0 .85l-.47.47.47.47Z" style="fill:#ef4444"/>
</svg>